<svg width="522" height="307" viewBox="0 0 522 307" fill="none" xmlns="http://www.w3.org/2000/svg">
<path d="M170 157L-19 9V84.1872L74.3138 157L-19 231.396V305L170 157Z" stroke="#08F5D1"/>
<path d="M329 157L139 9V84.1872L232.808 157L139 231.396V305L329 157Z" stroke="#08F5D1"/>
<path d="M521 157L332 9V84.1872L425.314 157L332 231.396V305L521 157Z" stroke="#08F5D1"/>
<path opacity="0.3" d="M169 149L-20 1V76.1872L73.3138 149L-20 223.396V297L169 149Z" stroke="white" stroke-width="0.5"/>
<path opacity="0.3" d="M328 149L138 1V76.1872L231.808 149L138 223.396V297L328 149Z" stroke="white" stroke-width="0.5"/>
<path opacity="0.3" d="M520 149L331 1V76.1872L424.314 149L331 223.396V297L520 149Z" stroke="white" stroke-width="0.5"/>
</svg>
