<svg width="501" height="307" viewBox="0 0 501 307" fill="none" xmlns="http://www.w3.org/2000/svg">
<path d="M352 150L541 298L541 222.813L447.686 150L541 75.6043L541 2L352 150Z" stroke="#08F5D1"/>
<path d="M193 150L383 298L383 222.813L289.192 150L383 75.6043L383 2L193 150Z" stroke="#08F5D1"/>
<path d="M1.00001 150L190 298L190 222.813L96.6862 150L190 75.6043L190 2L1.00001 150Z" stroke="#08F5D1"/>
<path opacity="0.3" d="M353 158L542 306L542 230.813L448.686 158L542 83.6043L542 10L353 158Z" stroke="white" stroke-width="0.5"/>
<path opacity="0.3" d="M194 158L384 306L384 230.813L290.192 158L384 83.6043L384 10L194 158Z" stroke="white" stroke-width="0.5"/>
<path opacity="0.3" d="M2.00001 158L191 306L191 230.813L97.6862 158L191 83.6043L191 10L2.00001 158Z" stroke="white" stroke-width="0.5"/>
</svg>
