<svg width="1600" height="404" viewBox="0 0 1600 404" fill="none" xmlns="http://www.w3.org/2000/svg">
<path opacity="0.1" d="M-85.0417 53.5L-86.0286 53.3389L-86.0297 53.3456L-85.0417 53.5ZM-65.7917 17.2917L-66.4425 16.5324L-66.4479 16.5371L-66.4533 16.5418L-65.7917 17.2917ZM18.0833 3.54165L19.0712 3.38633L18.9384 2.54165H18.0833V3.54165ZM80.4167 400V401H81.5862L81.4045 399.845L80.4167 400ZM15.7917 400L14.8011 400.137L14.9207 401H15.7917V400ZM5.25 323.917L6.24054 323.779L6.121 322.917H5.25V323.917ZM-63.9583 323.917V322.917H-64.8286L-64.9488 323.779L-63.9583 323.917ZM-74.5 399.542V400.542H-73.6297L-73.5096 399.68L-74.5 399.542ZM-139.125 399.542L-140.113 399.387L-140.293 400.542H-139.125V399.542ZM-55.25 262.042L-56.2399 261.9L-56.403 263.042H-55.25V262.042ZM-3.45833 262.042V263.042H-2.30817L-2.46803 261.903L-3.45833 262.042ZM-29.125 79.1666L-28.1347 79.0276L-30.1149 79.0252L-29.125 79.1666ZM-84.0547 53.6611C-81.6437 38.8937 -75.329 27.0406 -65.13 18.0415L-66.4533 16.5418C-77.0321 25.8761 -83.5507 38.1619 -86.0286 53.3389L-84.0547 53.6611ZM-65.1409 18.0509C-54.6436 9.05322 -41.8942 4.54165 -26.8333 4.54165V2.54165C-42.328 2.54165 -55.5509 7.19677 -66.4425 16.5324L-65.1409 18.0509ZM-26.8333 4.54165H18.0833V2.54165H-26.8333V4.54165ZM17.0955 3.69697L79.4288 400.155L81.4045 399.845L19.0712 3.38633L17.0955 3.69697ZM80.4167 399H15.7917V401H80.4167V399ZM16.7822 399.863L6.24054 323.779L4.25946 324.054L14.8011 400.137L16.7822 399.863ZM5.25 322.917H-63.9583V324.917H5.25V322.917ZM-64.9488 323.779L-75.4904 399.404L-73.5096 399.68L-62.9679 324.055L-64.9488 323.779ZM-74.5 398.542H-139.125V400.542H-74.5V398.542ZM-138.137 399.696L-84.0537 53.6544L-86.0297 53.3456L-140.113 399.387L-138.137 399.696ZM-55.25 263.042H-3.45833V261.042H-55.25V263.042ZM-2.46803 261.903L-28.1347 79.0276L-30.1153 79.3056L-4.44861 262.181L-2.46803 261.903ZM-30.1149 79.0252L-56.2399 261.9L-54.26 262.183L-28.135 79.3081L-30.1149 79.0252ZM115.744 4.45832V3.45832H114.744V4.45832H115.744ZM286.702 20.9583L285.985 21.6554L285.995 21.6655L286.005 21.6753L286.702 20.9583ZM299.536 177.25L298.641 176.803L298.635 176.815L298.63 176.827L299.536 177.25ZM290.369 189.625L289.691 188.89L289.676 188.904L289.662 188.918L290.369 189.625ZM277.536 198.792L277.959 199.698L277.971 199.692L277.983 199.686L277.536 198.792ZM277.536 205.667L277.065 206.549L277.099 206.567L277.135 206.583L277.536 205.667ZM290.369 214.375L289.662 215.082L289.676 215.096L289.691 215.11L290.369 214.375ZM299.536 227.208L298.62 227.609L298.635 227.645L298.653 227.679L299.536 227.208ZM286.702 383.958L287.41 384.665L286.702 383.958ZM115.744 400H114.744V401H115.744V400ZM178.077 233.167V232.167H177.077V233.167H178.077ZM178.077 337.667H177.077V338.667H178.077V337.667ZM235.827 332.625L236.535 333.332L235.827 332.625ZM235.827 238.208L236.535 237.501L235.827 238.208ZM235.827 165.792L236.535 166.499L235.827 165.792ZM235.827 71.375L236.535 70.6679L235.827 71.375ZM178.077 66.3333V65.3333H177.077V66.3333H178.077ZM178.077 170.833H177.077V171.833H178.077V170.833ZM115.744 5.45832H243.619V3.45832H115.744V5.45832ZM243.619 5.45832C261.428 5.45832 275.512 10.8829 285.985 21.6554L287.419 20.2613C276.504 9.03373 261.866 3.45832 243.619 3.45832V5.45832ZM286.005 21.6753C296.778 32.1486 302.202 46.2328 302.202 64.0417H304.202C304.202 45.795 298.627 31.157 287.4 20.2413L286.005 21.6753ZM302.202 64.0417V162.583H304.202V64.0417H302.202ZM302.202 162.583C302.202 167.299 301.025 172.036 298.641 176.803L300.43 177.697C302.936 172.686 304.202 167.645 304.202 162.583H302.202ZM298.63 176.827C296.549 181.285 293.574 185.306 289.691 188.89L291.047 190.36C295.109 186.611 298.244 182.382 300.442 177.673L298.63 176.827ZM289.662 188.918C286.075 192.505 281.887 195.498 277.089 197.897L277.983 199.686C282.963 197.196 287.33 194.079 291.076 190.332L289.662 188.918ZM277.113 197.885C272.648 199.969 268.208 201 263.786 201V203C268.53 203 273.257 201.892 277.959 199.698L277.113 197.885ZM263.786 203C268.184 203 272.607 204.171 277.065 206.549L278.006 204.784C273.298 202.273 268.554 201 263.786 201V203ZM277.135 206.583C281.913 208.673 286.086 211.506 289.662 215.082L291.076 213.668C287.319 209.91 282.936 206.938 277.937 204.75L277.135 206.583ZM289.691 215.11C293.563 218.684 296.537 222.849 298.62 227.609L300.452 226.808C298.257 221.79 295.12 217.399 291.047 213.64L289.691 215.11ZM298.653 227.679C301.026 232.127 302.202 236.702 302.202 241.417H304.202C304.202 236.353 302.935 231.457 300.418 226.738L298.653 227.679ZM302.202 241.417V340.417H304.202V241.417H302.202ZM302.202 340.417C302.202 358.225 296.778 372.469 285.995 383.251L287.41 384.665C298.627 373.448 304.202 358.664 304.202 340.417H302.202ZM285.995 383.251C275.524 393.723 261.436 399 243.619 399V401C261.858 401 276.492 395.583 287.41 384.665L285.995 383.251ZM243.619 399H115.744V401H243.619V399ZM116.744 400V4.45832H114.744V400H116.744ZM177.077 233.167V337.667H179.077V233.167H177.077ZM178.077 338.667H223.452V336.667H178.077V338.667ZM223.452 338.667C228.598 338.667 232.98 336.887 236.535 333.332L235.12 331.918C231.953 335.086 228.085 336.667 223.452 336.667V338.667ZM236.535 333.332C240.089 329.778 241.869 325.396 241.869 320.25H239.869C239.869 324.882 238.288 328.75 235.12 331.918L236.535 333.332ZM241.869 320.25V250.583H239.869V320.25H241.869ZM241.869 250.583C241.869 245.438 240.089 241.056 236.535 237.501L235.12 238.915C238.288 242.083 239.869 245.951 239.869 250.583H241.869ZM236.535 237.501C232.98 233.947 228.598 232.167 223.452 232.167V234.167C228.085 234.167 231.953 235.748 235.12 238.915L236.535 237.501ZM223.452 232.167H178.077V234.167H223.452V232.167ZM223.452 171.833C228.598 171.833 232.98 170.053 236.535 166.499L235.12 165.085C231.953 168.252 228.085 169.833 223.452 169.833V171.833ZM236.535 166.499C240.089 162.944 241.869 158.562 241.869 153.417H239.869C239.869 158.049 238.288 161.917 235.12 165.085L236.535 166.499ZM241.869 153.417V83.75H239.869V153.417H241.869ZM241.869 83.75C241.869 78.6044 240.089 74.2224 236.535 70.6679L235.12 72.0821C238.288 75.2498 239.869 79.1179 239.869 83.75H241.869ZM236.535 70.6679C232.98 67.1133 228.598 65.3333 223.452 65.3333V67.3333C228.085 67.3333 231.953 68.9144 235.12 72.0821L236.535 70.6679ZM223.452 65.3333H178.077V67.3333H223.452V65.3333ZM177.077 66.3333V170.833H179.077V66.3333H177.077ZM178.077 171.833H223.452V169.833H178.077V171.833ZM365.342 20.5L366.05 21.2071L365.342 20.5ZM521.634 20.5L520.927 21.2071L521.634 20.5ZM521.634 383.5L520.927 382.793L521.634 383.5ZM365.342 383.5L366.05 382.793L365.342 383.5ZM473.051 334.917L472.344 334.21L473.051 334.917ZM473.051 69.0833L472.344 69.7904L473.051 69.0833ZM413.926 69.0833L414.633 69.7904L413.926 69.0833ZM413.926 334.917L414.633 334.21L413.926 334.917ZM347.551 70.4583C347.551 49.8964 353.742 33.5151 366.05 21.2071L364.635 19.7929C351.888 32.5405 345.551 49.4647 345.551 70.4583H347.551ZM366.05 21.2071C378.358 8.89912 394.739 2.70832 415.301 2.70832V0.708321C394.307 0.708321 377.383 7.04531 364.635 19.7929L366.05 21.2071ZM415.301 2.70832H471.676V0.708321H415.301V2.70832ZM471.676 2.70832C492.238 2.70832 508.619 8.89912 520.927 21.2071L522.341 19.7929C509.594 7.04531 492.669 0.708321 471.676 0.708321V2.70832ZM520.927 21.2071C533.235 33.5151 539.426 49.8964 539.426 70.4583H541.426C541.426 49.4647 535.089 32.5405 522.341 19.7929L520.927 21.2071ZM539.426 70.4583V333.542H541.426V70.4583H539.426ZM539.426 333.542C539.426 354.104 533.235 370.485 520.927 382.793L522.341 384.207C535.089 371.46 541.426 354.535 541.426 333.542H539.426ZM520.927 382.793C508.619 395.101 492.238 401.292 471.676 401.292V403.292C492.669 403.292 509.594 396.955 522.341 384.207L520.927 382.793ZM471.676 401.292H415.301V403.292H471.676V401.292ZM415.301 401.292C394.739 401.292 378.358 395.101 366.05 382.793L364.635 384.207C377.383 396.955 394.307 403.292 415.301 403.292V401.292ZM366.05 382.793C353.742 370.485 347.551 354.104 347.551 333.542H345.551C345.551 354.535 351.888 371.46 364.635 384.207L366.05 382.793ZM347.551 333.542V70.4583H345.551V333.542H347.551ZM426.301 340.958H460.676V338.958H426.301V340.958ZM460.676 340.958C465.821 340.958 470.203 339.178 473.758 335.624L472.344 334.21C469.176 337.377 465.308 338.958 460.676 338.958V340.958ZM473.758 335.624C477.312 332.069 479.092 327.687 479.092 322.542H477.092C477.092 327.174 475.511 331.042 472.344 334.21L473.758 335.624ZM479.092 322.542V83.75H477.092V322.542H479.092ZM479.092 83.75C479.092 77.1636 477.365 71.983 473.758 68.3762L472.344 69.7904C475.459 72.9059 477.092 77.5031 477.092 83.75H479.092ZM473.758 68.3762C470.203 64.8217 465.821 63.0417 460.676 63.0417V65.0417C465.308 65.0417 469.176 66.6228 472.344 69.7904L473.758 68.3762ZM460.676 63.0417H426.301V65.0417H460.676V63.0417ZM426.301 63.0417C421.155 63.0417 416.773 64.8217 413.219 68.3762L414.633 69.7904C417.801 66.6228 421.669 65.0417 426.301 65.0417V63.0417ZM413.219 68.3762C409.612 71.983 407.884 77.1636 407.884 83.75H409.884C409.884 77.5031 411.517 72.9059 414.633 69.7904L413.219 68.3762ZM407.884 83.75V322.542H409.884V83.75H407.884ZM407.884 322.542C407.884 327.687 409.664 332.069 413.219 335.624L414.633 334.21C411.465 331.042 409.884 327.174 409.884 322.542H407.884ZM413.219 335.624C416.773 339.178 421.155 340.958 426.301 340.958V338.958C421.669 338.958 417.801 337.377 414.633 334.21L413.219 335.624ZM649.359 4.45832H650.359V3.45832H649.359V4.45832ZM655.317 331.708L654.584 332.389L654.609 332.416L654.637 332.441L655.317 331.708ZM708.942 331.708L709.649 332.415L708.942 331.708ZM715.359 4.45832V3.45832H714.359V4.45832H715.359ZM777.692 4.45832H778.692V3.45832H777.692V4.45832ZM605.817 381.208L606.524 380.501L605.817 381.208ZM587.025 4.45832V3.45832H586.025V4.45832H587.025ZM648.359 4.45832V314.75H650.359V4.45832H648.359ZM648.359 314.75C648.359 321.976 650.407 327.89 654.584 332.389L656.05 331.028C652.283 326.971 650.359 321.58 650.359 314.75H648.359ZM654.637 332.441C659.136 336.619 665.05 338.667 672.275 338.667V336.667C665.446 336.667 660.054 334.742 655.997 330.976L654.637 332.441ZM672.275 338.667H692.442V336.667H672.275V338.667ZM692.442 338.667C699.665 338.667 705.445 336.62 709.649 332.415L708.235 331.001C704.495 334.741 699.275 336.667 692.442 336.667V338.667ZM709.649 332.415C714.145 327.92 716.359 321.997 716.359 314.75H714.359C714.359 321.559 712.295 326.941 708.235 331.001L709.649 332.415ZM716.359 314.75V4.45832H714.359V314.75H716.359ZM715.359 5.45832H777.692V3.45832H715.359V5.45832ZM776.692 4.45832V331.25H778.692V4.45832H776.692ZM776.692 331.25C776.692 351.812 770.501 368.193 758.193 380.501L759.607 381.915C772.355 369.168 778.692 352.244 778.692 331.25H776.692ZM758.193 380.501C745.885 392.809 729.504 399 708.942 399V401C729.936 401 746.86 394.663 759.607 381.915L758.193 380.501ZM708.942 399H655.775V401H708.942V399ZM655.775 399C635.213 399 618.832 392.809 606.524 380.501L605.11 381.915C617.858 394.663 634.782 401 655.775 401V399ZM606.524 380.501C594.216 368.193 588.025 351.812 588.025 331.25H586.025C586.025 352.244 592.362 369.168 605.11 381.915L606.524 380.501ZM588.025 331.25V4.45832H586.025V331.25H588.025ZM587.025 5.45832H649.359V3.45832H587.025V5.45832ZM812.712 4.45832V3.45832H811.712V4.45832H812.712ZM1007.96 4.45832H1008.96V3.45832H1007.96V4.45832ZM1007.96 66.3333V67.3333H1008.96V66.3333H1007.96ZM941.503 66.3333V65.3333H940.503V66.3333H941.503ZM941.503 400V401H942.503V400H941.503ZM879.17 400H878.17V401H879.17V400ZM879.17 66.3333H880.17V65.3333H879.17V66.3333ZM812.712 66.3333H811.712V67.3333H812.712V66.3333ZM812.712 5.45832H1007.96V3.45832H812.712V5.45832ZM1006.96 4.45832V66.3333H1008.96V4.45832H1006.96ZM1007.96 65.3333H941.503V67.3333H1007.96V65.3333ZM940.503 66.3333V400H942.503V66.3333H940.503ZM941.503 399H879.17V401H941.503V399ZM880.17 400V66.3333H878.17V400H880.17ZM879.17 65.3333H812.712V67.3333H879.17V65.3333ZM813.712 66.3333V4.45832H811.712V66.3333H813.712ZM1137.65 400H1136.65V401H1137.65V400ZM1137.65 3.99998V2.99998H1136.65V3.99998H1137.65ZM1230.23 14.0833L1229.57 14.834L1229.58 14.8416L1229.59 14.849L1230.23 14.0833ZM1243.98 40.2083L1242.99 40.3459V40.3466L1243.98 40.2083ZM1278.36 286.333L1277.37 286.472L1279.35 286.47L1278.36 286.333ZM1312.27 40.2083L1311.28 40.0707L1311.28 40.0718L1312.27 40.2083ZM1326.02 14.0833L1326.67 14.849L1326.68 14.8416L1326.68 14.834L1326.02 14.0833ZM1418.61 3.99998H1419.61V2.99998H1418.61V3.99998ZM1418.61 400V401H1419.61V400H1418.61ZM1353.98 400L1352.98 399.976L1352.96 401H1353.98V400ZM1361.32 94.75L1362.31 94.774L1360.33 94.5885L1361.32 94.75ZM1311.36 400V401H1312.21L1312.34 400.162L1311.36 400ZM1244.9 400L1243.91 400.162L1244.05 401H1244.9V400ZM1194.94 94.75L1195.93 94.5885L1193.94 94.774L1194.94 94.75ZM1202.27 400V401H1203.3L1203.27 399.976L1202.27 400ZM1138.65 400V3.99998H1136.65V400H1138.65ZM1137.65 4.99998H1202.27V2.99998H1137.65V4.99998ZM1202.27 4.99998C1213.05 4.99998 1222.13 8.28603 1229.57 14.834L1230.89 13.3326C1223.06 6.43616 1213.5 2.99998 1202.27 2.99998V4.99998ZM1229.59 14.849C1237.02 21.0881 1241.49 29.5611 1242.99 40.3459L1244.97 40.0707C1243.41 28.8555 1238.73 19.9119 1230.88 13.3176L1229.59 14.849ZM1242.99 40.3466L1277.37 286.472L1279.35 286.195L1244.97 40.07L1242.99 40.3466ZM1279.35 286.47L1313.26 40.3448L1311.28 40.0718L1277.37 286.197L1279.35 286.47ZM1313.26 40.3459C1314.76 29.5611 1319.24 21.0881 1326.67 14.849L1325.38 13.3176C1317.53 19.9119 1312.84 28.8555 1311.28 40.0707L1313.26 40.3459ZM1326.68 14.834C1334.12 8.28603 1343.2 4.99998 1353.98 4.99998V2.99998C1342.76 2.99998 1333.2 6.43616 1325.36 13.3326L1326.68 14.834ZM1353.98 4.99998H1418.61V2.99998H1353.98V4.99998ZM1417.61 3.99998V400H1419.61V3.99998H1417.61ZM1418.61 399H1353.98V401H1418.61V399ZM1354.98 400.024L1362.31 94.774L1360.32 94.726L1352.98 399.976L1354.98 400.024ZM1360.33 94.5885L1310.37 399.838L1312.34 400.162L1362.3 94.9115L1360.33 94.5885ZM1311.36 399H1244.9V401H1311.36V399ZM1245.89 399.838L1195.93 94.5885L1193.95 94.9115L1243.91 400.162L1245.89 399.838ZM1193.94 94.774L1201.27 400.024L1203.27 399.976L1195.94 94.726L1193.94 94.774ZM1202.27 399H1137.65V401H1202.27V399ZM1464.6 3.99998V2.99998H1463.6V3.99998H1464.6ZM1636.01 3.99998H1637.01V2.99998H1636.01V3.99998ZM1636.01 66.3333V67.3333H1637.01V66.3333H1636.01ZM1526.93 66.3333V65.3333H1525.93V66.3333H1526.93ZM1526.93 170.833H1525.93V171.833H1526.93V170.833ZM1610.81 170.833H1611.81V169.833H1610.81V170.833ZM1600.72 223.083L1600.02 222.376L1600.72 223.083ZM1526.93 233.167V232.167H1525.93V233.167H1526.93ZM1526.93 337.667H1525.93V338.667H1526.93V337.667ZM1636.01 337.667H1637.01V336.667H1636.01V337.667ZM1636.01 400V401H1637.01V400H1636.01ZM1464.6 400H1463.6V401H1464.6V400ZM1464.6 4.99998H1636.01V2.99998H1464.6V4.99998ZM1635.01 3.99998V66.3333H1637.01V3.99998H1635.01ZM1636.01 65.3333H1526.93V67.3333H1636.01V65.3333ZM1525.93 66.3333V170.833H1527.93V66.3333H1525.93ZM1526.93 171.833H1610.81V169.833H1526.93V171.833ZM1609.81 170.833V196.5H1611.81V170.833H1609.81ZM1609.81 196.5C1609.81 207.28 1606.52 215.871 1600.02 222.376L1601.43 223.79C1608.37 216.851 1611.81 207.72 1611.81 196.5H1609.81ZM1600.02 222.376C1593.51 228.881 1584.92 232.167 1574.14 232.167V234.167C1585.36 234.167 1594.49 230.73 1601.43 223.79L1600.02 222.376ZM1574.14 232.167H1526.93V234.167H1574.14V232.167ZM1525.93 233.167V337.667H1527.93V233.167H1525.93ZM1526.93 338.667H1636.01V336.667H1526.93V338.667ZM1635.01 337.667V400H1637.01V337.667H1635.01ZM1636.01 399H1464.6V401H1636.01V399ZM1465.6 400V3.99998H1463.6V400H1465.6Z" fill="white"/>
</svg>
