<svg width="1600" height="404" viewBox="0 0 1600 404" fill="none" xmlns="http://www.w3.org/2000/svg">
<path opacity="0.1" d="M-190.25 4.45832V3.45832H-191.25V4.45832H-190.25ZM-19.2917 20.9583L-20.0087 21.6554L-19.9988 21.6655L-19.9887 21.6753L-19.2917 20.9583ZM-127.917 246.917V245.917H-128.917V246.917H-127.917ZM-127.917 400V401H-126.917V400H-127.917ZM-190.25 400H-191.25V401H-190.25V400ZM-127.917 66.3333V65.3333H-128.917V66.3333H-127.917ZM-127.917 184.583H-128.917V185.583H-127.917V184.583ZM-70.1667 179.542L-69.4596 180.249L-69.4596 180.249L-70.1667 179.542ZM-70.1667 71.375L-69.4596 70.6679L-69.4596 70.6679L-70.1667 71.375ZM-190.25 5.45832H-62.375V3.45832H-190.25V5.45832ZM-62.375 5.45832C-44.5661 5.45832 -30.4819 10.8829 -20.0087 21.6554L-18.5747 20.2613C-29.4903 9.03373 -44.1283 3.45832 -62.375 3.45832V5.45832ZM-19.9887 21.6753C-9.21625 32.1486 -3.79166 46.2328 -3.79166 64.0417H-1.79166C-1.79166 45.795 -7.36707 31.157 -18.5946 20.2413L-19.9887 21.6753ZM-3.79166 64.0417V187.333H-1.79166V64.0417H-3.79166ZM-3.79166 187.333C-3.79166 205.141 -9.21625 219.385 -19.9988 230.168L-18.5846 231.582C-7.36707 220.365 -1.79166 205.581 -1.79166 187.333H-3.79166ZM-19.9988 230.168C-30.4703 240.639 -44.5578 245.917 -62.375 245.917V247.917C-44.1366 247.917 -29.5019 242.499 -18.5846 231.582L-19.9988 230.168ZM-62.375 245.917H-127.917V247.917H-62.375V245.917ZM-128.917 246.917V400H-126.917V246.917H-128.917ZM-127.917 399H-190.25V401H-127.917V399ZM-189.25 400V4.45832H-191.25V400H-189.25ZM-128.917 66.3333V184.583H-126.917V66.3333H-128.917ZM-127.917 185.583H-82.5417V183.583H-127.917V185.583ZM-82.5417 185.583C-77.396 185.583 -73.0141 183.803 -69.4596 180.249L-70.8738 178.835C-74.0414 182.002 -77.9095 183.583 -82.5417 183.583V185.583ZM-69.4596 180.249C-65.905 176.694 -64.125 172.312 -64.125 167.167H-66.125C-66.125 171.799 -67.7061 175.667 -70.8738 178.835L-69.4596 180.249ZM-64.125 167.167V83.75H-66.125V167.167H-64.125ZM-64.125 83.75C-64.125 78.6043 -65.905 74.2224 -69.4596 70.6679L-70.8738 72.0821C-67.7061 75.2498 -66.125 79.1179 -66.125 83.75H-64.125ZM-69.4596 70.6679C-73.0141 67.1133 -77.396 65.3333 -82.5417 65.3333V67.3333C-77.9095 67.3333 -74.0414 68.9144 -70.8738 72.0821L-69.4596 70.6679ZM-82.5417 65.3333H-127.917V67.3333H-82.5417V65.3333ZM57.737 20.5L58.4441 21.2071L58.4441 21.2071L57.737 20.5ZM214.029 20.5L213.322 21.2071L213.322 21.2071L214.029 20.5ZM214.029 383.5L213.322 382.793L213.322 382.793L214.029 383.5ZM57.737 383.5L58.4441 382.793L58.4441 382.793L57.737 383.5ZM165.445 334.917L164.738 334.21L164.738 334.21L165.445 334.917ZM165.445 69.0833L164.738 69.7904L164.738 69.7904L165.445 69.0833ZM106.32 69.0833L107.027 69.7904L107.027 69.7904L106.32 69.0833ZM106.32 334.917L107.027 334.21L107.027 334.21L106.32 334.917ZM39.9453 70.4583C39.9453 49.8964 46.1361 33.5151 58.4441 21.2071L57.0299 19.7929C44.2823 32.5405 37.9453 49.4647 37.9453 70.4583H39.9453ZM58.4441 21.2071C70.7521 8.89911 87.1334 2.70832 107.695 2.70832V0.70832C86.7017 0.70832 69.7774 7.04531 57.0299 19.7929L58.4441 21.2071ZM107.695 2.70832H164.07V0.70832H107.695V2.70832ZM164.07 2.70832C184.632 2.70832 201.014 8.89911 213.322 21.2071L214.736 19.7929C201.988 7.04531 185.064 0.70832 164.07 0.70832V2.70832ZM213.322 21.2071C225.63 33.5151 231.82 49.8964 231.82 70.4583H233.82C233.82 49.4647 227.483 32.5405 214.736 19.7929L213.322 21.2071ZM231.82 70.4583V333.542H233.82V70.4583H231.82ZM231.82 333.542C231.82 354.104 225.63 370.485 213.322 382.793L214.736 384.207C227.483 371.46 233.82 354.535 233.82 333.542H231.82ZM213.322 382.793C201.014 395.101 184.632 401.292 164.07 401.292V403.292C185.064 403.292 201.988 396.955 214.736 384.207L213.322 382.793ZM164.07 401.292H107.695V403.292H164.07V401.292ZM107.695 401.292C87.1334 401.292 70.7521 395.101 58.4441 382.793L57.0299 384.207C69.7774 396.955 86.7017 403.292 107.695 403.292V401.292ZM58.4441 382.793C46.1361 370.485 39.9453 354.104 39.9453 333.542H37.9453C37.9453 354.535 44.2823 371.46 57.0299 384.207L58.4441 382.793ZM39.9453 333.542V70.4583H37.9453V333.542H39.9453ZM118.695 340.958H153.07V338.958H118.695V340.958ZM153.07 340.958C158.216 340.958 162.598 339.178 166.152 335.624L164.738 334.21C161.571 337.377 157.702 338.958 153.07 338.958V340.958ZM166.152 335.624C169.707 332.069 171.487 327.687 171.487 322.542H169.487C169.487 327.174 167.906 331.042 164.738 334.21L166.152 335.624ZM171.487 322.542V83.75H169.487V322.542H171.487ZM171.487 83.75C171.487 77.1636 169.759 71.983 166.152 68.3762L164.738 69.7904C167.854 72.9058 169.487 77.5031 169.487 83.75H171.487ZM166.152 68.3762C162.598 64.8217 158.216 63.0417 153.07 63.0417V65.0417C157.702 65.0417 161.571 66.6228 164.738 69.7904L166.152 68.3762ZM153.07 63.0417H118.695V65.0417H153.07V63.0417ZM118.695 63.0417C113.55 63.0417 109.168 64.8217 105.613 68.3762L107.027 69.7904C110.195 66.6228 114.063 65.0417 118.695 65.0417V63.0417ZM105.613 68.3762C102.006 71.983 100.279 77.1636 100.279 83.75H102.279C102.279 77.5031 103.912 72.9058 107.027 69.7904L105.613 68.3762ZM100.279 83.75V322.542H102.279V83.75H100.279ZM100.279 322.542C100.279 327.687 102.059 332.069 105.613 335.624L107.027 334.21C103.86 331.042 102.279 327.174 102.279 322.542H100.279ZM105.613 335.624C109.168 339.178 113.55 340.958 118.695 340.958V338.958C114.063 338.958 110.195 337.377 107.027 334.21L105.613 335.624ZM281.568 4.45832V3.45832H280.568V4.45832H281.568ZM452.527 20.9583L451.81 21.6554L451.82 21.6655L451.83 21.6753L452.527 20.9583ZM459.402 208.417L460.23 208.978L460.234 208.971L460.238 208.965L459.402 208.417ZM432.818 228.583L432.487 227.64L431.593 227.954L431.859 228.864L432.818 228.583ZM482.777 399.542V400.542H484.111L483.737 399.261L482.777 399.542ZM419.527 393.583L418.919 394.378L418.93 394.386L418.941 394.394L419.527 393.583ZM408.985 377.542L409.95 377.279L409.948 377.27L409.945 377.262L408.985 377.542ZM366.818 232.708L367.778 232.429L367.569 231.708H366.818V232.708ZM343.902 232.708V231.708H342.902V232.708H343.902ZM343.902 399.542V400.542H344.902V399.542H343.902ZM281.568 399.542H280.568V400.542H281.568V399.542ZM343.902 170.833H342.902V171.833H343.902V170.833ZM400.277 164.875L400.984 165.582L400.984 165.582L400.277 164.875ZM400.277 72.75L399.544 73.4304L399.569 73.4576L399.596 73.4828L400.277 72.75ZM343.902 66.3333V65.3333H342.902V66.3333H343.902ZM281.568 5.45832H409.443V3.45832H281.568V5.45832ZM409.443 5.45832C427.252 5.45832 441.336 10.8829 451.81 21.6554L453.244 20.2613C442.328 9.03373 427.69 3.45832 409.443 3.45832V5.45832ZM451.83 21.6753C462.602 32.1486 468.027 46.2328 468.027 64.0417H470.027C470.027 45.795 464.451 31.157 453.224 20.2413L451.83 21.6753ZM468.027 64.0417V173.125H470.027V64.0417H468.027ZM468.027 173.125C468.027 186.715 464.858 198.28 458.566 207.868L460.238 208.965C466.779 198.998 470.027 187.035 470.027 173.125H468.027ZM458.574 207.856C452.283 217.142 443.6 223.735 432.487 227.64L433.15 229.527C444.647 225.487 453.687 218.636 460.23 208.978L458.574 207.856ZM431.859 228.864L481.817 399.822L483.737 399.261L433.778 228.303L431.859 228.864ZM482.777 398.542H438.318V400.542H482.777V398.542ZM438.318 398.542C431.493 398.542 425.435 396.617 420.112 392.773L418.941 394.394C424.618 398.494 431.088 400.542 438.318 400.542V398.542ZM420.134 392.789C415.126 388.959 411.729 383.804 409.95 377.279L408.02 377.805C409.907 384.724 413.539 390.263 418.919 394.378L420.134 392.789ZM409.945 377.262L367.778 232.429L365.858 232.988L408.025 377.821L409.945 377.262ZM366.818 231.708H343.902V233.708H366.818V231.708ZM342.902 232.708V399.542H344.902V232.708H342.902ZM343.902 398.542H281.568V400.542H343.902V398.542ZM282.568 399.542V4.45832H280.568V399.542H282.568ZM343.902 171.833H383.777V169.833H343.902V171.833ZM383.777 171.833C390.999 171.833 396.78 169.786 400.984 165.582L399.57 164.168C395.829 167.908 390.61 169.833 383.777 169.833V171.833ZM400.984 165.582C405.48 161.086 407.693 155.163 407.693 147.917H405.693C405.693 154.726 403.629 160.108 399.57 164.168L400.984 165.582ZM407.693 147.917V89.25H405.693V147.917H407.693ZM407.693 89.25C407.693 82.0055 405.48 76.2167 400.957 72.0172L399.596 73.4828C403.629 77.2277 405.693 82.4389 405.693 89.25H407.693ZM401.009 72.0695C396.81 67.547 391.021 65.3333 383.777 65.3333V67.3333C390.588 67.3333 395.799 69.3974 399.544 73.4304L401.009 72.0695ZM383.777 65.3333H343.902V67.3333H383.777V65.3333ZM342.902 66.3333V170.833H344.902V66.3333H342.902ZM504.032 4.45832V3.45832H503.032V4.45832H504.032ZM699.282 4.45832H700.282V3.45832H699.282V4.45832ZM699.282 66.3333V67.3333H700.282V66.3333H699.282ZM632.824 66.3333V65.3333H631.824V66.3333H632.824ZM632.824 400V401H633.824V400H632.824ZM570.49 400H569.49V401H570.49V400ZM570.49 66.3333H571.49V65.3333H570.49V66.3333ZM504.032 66.3333H503.032V67.3333H504.032V66.3333ZM504.032 5.45832H699.282V3.45832H504.032V5.45832ZM698.282 4.45832V66.3333H700.282V4.45832H698.282ZM699.282 65.3333H632.824V67.3333H699.282V65.3333ZM631.824 66.3333V400H633.824V66.3333H631.824ZM632.824 399H570.49V401H632.824V399ZM571.49 400V66.3333H569.49V400H571.49ZM570.49 65.3333H504.032V67.3333H570.49V65.3333ZM505.032 66.3333V4.45832H503.032V66.3333H505.032ZM910.301 3.99998H911.301V2.99998H910.301V3.99998ZM910.301 66.3333V67.3333H911.301V66.3333H910.301ZM801.218 66.3333V65.3333H800.218V66.3333H801.218ZM801.218 170.833H800.218V171.833H801.218V170.833ZM880.51 170.833H881.51V169.833H880.51V170.833ZM801.218 233.167V232.167H800.218V233.167H801.218ZM801.218 400V401H802.218V400H801.218ZM738.885 400H737.885V401H738.885V400ZM738.885 3.99998V2.99998H737.885V3.99998H738.885ZM909.301 3.99998V66.3333H911.301V3.99998H909.301ZM910.301 65.3333H801.218V67.3333H910.301V65.3333ZM800.218 66.3333V170.833H802.218V66.3333H800.218ZM801.218 171.833H880.51V169.833H801.218V171.833ZM879.51 170.833V196.5H881.51V170.833H879.51ZM879.51 196.5C879.51 207.28 876.224 215.871 869.719 222.376L871.134 223.79C878.073 216.851 881.51 207.72 881.51 196.5H879.51ZM869.719 222.376C863.214 228.881 854.623 232.167 843.843 232.167V234.167C855.063 234.167 864.194 230.73 871.134 223.79L869.719 222.376ZM843.843 232.167H801.218V234.167H843.843V232.167ZM800.218 233.167V400H802.218V233.167H800.218ZM801.218 399H738.885V401H801.218V399ZM739.885 400V3.99998H737.885V400H739.885ZM738.885 4.99998H910.301V2.99998H738.885V4.99998ZM967.536 20.5L968.243 21.2071L968.243 21.2071L967.536 20.5ZM1123.83 20.5L1123.12 21.2071L1123.12 21.2071L1123.83 20.5ZM1123.83 383.5L1123.12 382.793L1123.12 382.793L1123.83 383.5ZM967.536 383.5L968.243 382.793L968.243 382.793L967.536 383.5ZM1075.24 334.917L1074.54 334.21L1074.54 334.21L1075.24 334.917ZM1075.24 69.0833L1074.54 69.7904L1074.54 69.7904L1075.24 69.0833ZM1016.12 69.0833L1016.83 69.7904L1016.83 69.7904L1016.12 69.0833ZM1016.12 334.917L1016.83 334.21L1016.83 334.21L1016.12 334.917ZM949.744 70.4583C949.744 49.8964 955.935 33.5151 968.243 21.2071L966.829 19.7929C954.081 32.5405 947.744 49.4647 947.744 70.4583H949.744ZM968.243 21.2071C980.551 8.89911 996.932 2.70832 1017.49 2.70832V0.70832C996.501 0.70832 979.576 7.04531 966.829 19.7929L968.243 21.2071ZM1017.49 2.70832H1073.87V0.70832H1017.49V2.70832ZM1073.87 2.70832C1094.43 2.70832 1110.81 8.89911 1123.12 21.2071L1124.53 19.7929C1111.79 7.04531 1094.86 0.70832 1073.87 0.70832V2.70832ZM1123.12 21.2071C1135.43 33.5151 1141.62 49.8964 1141.62 70.4583H1143.62C1143.62 49.4647 1137.28 32.5405 1124.53 19.7929L1123.12 21.2071ZM1141.62 70.4583V333.542H1143.62V70.4583H1141.62ZM1141.62 333.542C1141.62 354.104 1135.43 370.485 1123.12 382.793L1124.53 384.207C1137.28 371.46 1143.62 354.535 1143.62 333.542H1141.62ZM1123.12 382.793C1110.81 395.101 1094.43 401.292 1073.87 401.292V403.292C1094.86 403.292 1111.79 396.955 1124.53 384.207L1123.12 382.793ZM1073.87 401.292H1017.49V403.292H1073.87V401.292ZM1017.49 401.292C996.932 401.292 980.551 395.101 968.243 382.793L966.829 384.207C979.576 396.955 996.501 403.292 1017.49 403.292V401.292ZM968.243 382.793C955.935 370.485 949.744 354.104 949.744 333.542H947.744C947.744 354.535 954.081 371.46 966.829 384.207L968.243 382.793ZM949.744 333.542V70.4583H947.744V333.542H949.744ZM1028.49 340.958H1062.87V338.958H1028.49V340.958ZM1062.87 340.958C1068.01 340.958 1072.4 339.178 1075.95 335.624L1074.54 334.21C1071.37 337.377 1067.5 338.958 1062.87 338.958V340.958ZM1075.95 335.624C1079.51 332.069 1081.29 327.687 1081.29 322.542H1079.29C1079.29 327.174 1077.7 331.042 1074.54 334.21L1075.95 335.624ZM1081.29 322.542V83.75H1079.29V322.542H1081.29ZM1081.29 83.75C1081.29 77.1636 1079.56 71.983 1075.95 68.3762L1074.54 69.7904C1077.65 72.9058 1079.29 77.5031 1079.29 83.75H1081.29ZM1075.95 68.3762C1072.4 64.8217 1068.01 63.0417 1062.87 63.0417V65.0417C1067.5 65.0417 1071.37 66.6228 1074.54 69.7904L1075.95 68.3762ZM1062.87 63.0417H1028.49V65.0417H1062.87V63.0417ZM1028.49 63.0417C1023.35 63.0417 1018.97 64.8217 1015.41 68.3762L1016.83 69.7904C1019.99 66.6228 1023.86 65.0417 1028.49 65.0417V63.0417ZM1015.41 68.3762C1011.81 71.983 1010.08 77.1636 1010.08 83.75H1012.08C1012.08 77.5031 1013.71 72.9058 1016.83 69.7904L1015.41 68.3762ZM1010.08 83.75V322.542H1012.08V83.75H1010.08ZM1010.08 322.542C1010.08 327.687 1011.86 332.069 1015.41 335.624L1016.83 334.21C1013.66 331.042 1012.08 327.174 1012.08 322.542H1010.08ZM1015.41 335.624C1018.97 339.178 1023.35 340.958 1028.49 340.958V338.958C1023.86 338.958 1019.99 337.377 1016.83 334.21L1015.41 335.624ZM1358.2 400V401H1359.36L1359.19 399.855L1358.2 400ZM1191.37 400H1190.37V401H1191.37V400ZM1191.37 3.99998V2.99998H1190.37V3.99998H1191.37ZM1253.7 3.99998H1254.7V2.99998H1253.7V3.99998ZM1253.7 337.667H1252.7V338.667H1253.7V337.667ZM1349.03 337.667L1350.02 337.521L1349.9 336.667H1349.03V337.667ZM1358.2 399H1191.37V401H1358.2V399ZM1192.37 400V3.99998H1190.37V400H1192.37ZM1191.37 4.99998H1253.7V2.99998H1191.37V4.99998ZM1252.7 3.99998V337.667H1254.7V3.99998H1252.7ZM1253.7 338.667H1349.03V336.667H1253.7V338.667ZM1348.04 337.812L1357.21 400.145L1359.19 399.855L1350.02 337.521L1348.04 337.812ZM1391.16 400H1390.16V401H1391.16V400ZM1391.16 3.99998V2.99998H1390.16V3.99998H1391.16ZM1453.5 3.99998H1454.5V2.99998H1453.5V3.99998ZM1453.5 400V401H1454.5V400H1453.5ZM1392.16 400V3.99998H1390.16V400H1392.16ZM1391.16 4.99998H1453.5V2.99998H1391.16V4.99998ZM1452.5 3.99998V400H1454.5V3.99998H1452.5ZM1453.5 399H1391.16V401H1453.5V399ZM1518.7 20.5L1519.4 21.2071L1519.4 21.2071L1518.7 20.5ZM1674.99 20.5L1674.28 21.2071L1674.28 21.2071L1674.99 20.5ZM1674.99 383.5L1674.28 382.793L1674.28 382.793L1674.99 383.5ZM1518.7 383.5L1519.4 382.793L1519.4 382.793L1518.7 383.5ZM1626.4 334.917L1625.7 334.21L1625.7 334.21L1626.4 334.917ZM1626.4 69.0833L1625.7 69.7904L1625.7 69.7904L1626.4 69.0833ZM1567.28 69.0833L1567.99 69.7904L1567.99 69.7904L1567.28 69.0833ZM1567.28 334.917L1567.99 334.21L1567.99 334.21L1567.28 334.917ZM1500.9 70.4583C1500.9 49.8964 1507.1 33.5151 1519.4 21.2071L1517.99 19.7929C1505.24 32.5405 1498.9 49.4647 1498.9 70.4583H1500.9ZM1519.4 21.2071C1531.71 8.89911 1548.09 2.70832 1568.65 2.70832V0.70832C1547.66 0.70832 1530.74 7.04531 1517.99 19.7929L1519.4 21.2071ZM1568.65 2.70832H1625.03V0.70832H1568.65V2.70832ZM1625.03 2.70832C1645.59 2.70832 1661.97 8.89911 1674.28 21.2071L1675.69 19.7929C1662.95 7.04531 1646.02 0.70832 1625.03 0.70832V2.70832ZM1674.28 21.2071C1686.59 33.5151 1692.78 49.8964 1692.78 70.4583H1694.78C1694.78 49.4647 1688.44 32.5405 1675.69 19.7929L1674.28 21.2071ZM1692.78 70.4583V333.542H1694.78V70.4583H1692.78ZM1692.78 333.542C1692.78 354.104 1686.59 370.485 1674.28 382.793L1675.69 384.207C1688.44 371.46 1694.78 354.535 1694.78 333.542H1692.78ZM1674.28 382.793C1661.97 395.101 1645.59 401.292 1625.03 401.292V403.292C1646.02 403.292 1662.95 396.955 1675.69 384.207L1674.28 382.793ZM1625.03 401.292H1568.65V403.292H1625.03V401.292ZM1568.65 401.292C1548.09 401.292 1531.71 395.101 1519.4 382.793L1517.99 384.207C1530.74 396.955 1547.66 403.292 1568.65 403.292V401.292ZM1519.4 382.793C1507.1 370.485 1500.9 354.104 1500.9 333.542H1498.9C1498.9 354.535 1505.24 371.46 1517.99 384.207L1519.4 382.793ZM1500.9 333.542V70.4583H1498.9V333.542H1500.9ZM1579.65 340.958H1614.03V338.958H1579.65V340.958ZM1614.03 340.958C1619.17 340.958 1623.56 339.178 1627.11 335.624L1625.7 334.21C1622.53 337.377 1618.66 338.958 1614.03 338.958V340.958ZM1627.11 335.624C1630.67 332.069 1632.45 327.687 1632.45 322.542H1630.45C1630.45 327.174 1628.86 331.042 1625.7 334.21L1627.11 335.624ZM1632.45 322.542V83.75H1630.45V322.542H1632.45ZM1632.45 83.75C1632.45 77.1636 1630.72 71.983 1627.11 68.3762L1625.7 69.7904C1628.81 72.9058 1630.45 77.5031 1630.45 83.75H1632.45ZM1627.11 68.3762C1623.56 64.8217 1619.17 63.0417 1614.03 63.0417V65.0417C1618.66 65.0417 1622.53 66.6228 1625.7 69.7904L1627.11 68.3762ZM1614.03 63.0417H1579.65V65.0417H1614.03V63.0417ZM1579.65 63.0417C1574.51 63.0417 1570.13 64.8217 1566.57 68.3762L1567.99 69.7904C1571.15 66.6228 1575.02 65.0417 1579.65 65.0417V63.0417ZM1566.57 68.3762C1562.97 71.983 1561.24 77.1636 1561.24 83.75H1563.24C1563.24 77.5031 1564.87 72.9058 1567.99 69.7904L1566.57 68.3762ZM1561.24 83.75V322.542H1563.24V83.75H1561.24ZM1561.24 322.542C1561.24 327.687 1563.02 332.069 1566.57 335.624L1567.99 334.21C1564.82 331.042 1563.24 327.174 1563.24 322.542H1561.24ZM1566.57 335.624C1570.13 339.178 1574.51 340.958 1579.65 340.958V338.958C1575.02 338.958 1571.15 337.377 1567.99 334.21L1566.57 335.624Z" fill="white"/>
</svg>
