<svg width="1103" height="404" viewBox="0 0 1103 404" fill="none" xmlns="http://www.w3.org/2000/svg">
<path opacity="0.1" d="M20.5417 20.5L21.2488 21.2071L20.5417 20.5ZM170.417 20.5L169.71 21.2071L170.417 20.5ZM189.208 129.125L188.886 130.072L190.208 130.522V129.125H189.208ZM127.333 108.042H126.333V108.757L127.011 108.988L127.333 108.042ZM120.917 70L120.184 70.6804L120.209 70.7076L120.236 70.7328L120.917 70ZM69.5833 70L70.2904 70.7071L69.5833 70ZM72.3333 157.083L71.5765 157.737L72.3333 157.083ZM95.25 169.458L95.4101 168.471L95.4092 168.471L95.25 169.458ZM112.208 172.208L112.048 173.195L112.052 173.196L112.208 172.208ZM143.833 182.75L144.314 181.873L143.833 182.75ZM168.125 202.458L168.888 201.812L168.125 202.458ZM183.708 229.958L182.765 230.291L182.769 230.3L183.708 229.958ZM170.417 383.5L169.71 382.793L170.417 383.5ZM20.5417 383.5L21.2488 382.793L20.5417 383.5ZM1.75 295.958V294.958H0.75V295.958H1.75ZM63.625 295.958H64.625V294.958H63.625V295.958ZM69.5833 334.458L68.8505 335.139L68.8757 335.166L68.9029 335.191L69.5833 334.458ZM120.917 334.458L121.624 335.165L120.917 334.458ZM118.625 246.917L117.868 247.57L118.625 246.917ZM95.7083 234.542L95.5483 235.529L95.5491 235.529L95.7083 234.542ZM78.75 231.792L78.9101 230.805L78.906 230.804L78.75 231.792ZM47.125 221.25L47.6058 220.373L47.125 221.25ZM22.8333 201.542L22.0699 202.188L22.8333 201.542ZM7.25 174.5L6.30697 174.833L6.31021 174.842L7.25 174.5ZM2.75 141.5V70.4583H0.75V141.5H2.75ZM2.75 70.4583C2.75 49.8964 8.94079 33.5151 21.2488 21.2071L19.8346 19.7929C7.08699 32.5405 0.75 49.4647 0.75 70.4583H2.75ZM21.2488 21.2071C33.5568 8.89912 49.938 2.70832 70.5 2.70832V0.708321C49.5064 0.708321 32.5821 7.04531 19.8346 19.7929L21.2488 21.2071ZM70.5 2.70832H120.458V0.708321H70.5V2.70832ZM120.458 2.70832C141.02 2.70832 157.402 8.89912 169.71 21.2071L171.124 19.7929C158.376 7.04531 141.452 0.708321 120.458 0.708321V2.70832ZM169.71 21.2071C182.018 33.5151 188.208 49.8964 188.208 70.4583H190.208C190.208 49.4647 183.871 32.5405 171.124 19.7929L169.71 21.2071ZM188.208 70.4583V129.125H190.208V70.4583H188.208ZM189.531 128.178L127.656 107.095L127.011 108.988L188.886 130.072L189.531 128.178ZM128.333 108.042V86.5H126.333V108.042H128.333ZM128.333 86.5C128.333 79.2555 126.12 73.4667 121.597 69.2672L120.236 70.7328C124.269 74.4777 126.333 79.6889 126.333 86.5H128.333ZM121.649 69.3195C117.45 64.797 111.661 62.5833 104.417 62.5833V64.5833C111.228 64.5833 116.439 66.6474 120.184 70.6804L121.649 69.3195ZM104.417 62.5833H86.5417V64.5833H104.417V62.5833ZM86.5417 62.5833C79.295 62.5833 73.372 64.7971 68.8762 69.2929L70.2904 70.7071C74.3503 66.6473 79.7327 64.5833 86.5417 64.5833V62.5833ZM68.8762 69.2929C64.672 73.4971 62.625 79.2773 62.625 86.5H64.625C64.625 79.6671 66.5502 74.4473 70.2904 70.7071L68.8762 69.2929ZM62.625 86.5V132.333H64.625V86.5H62.625ZM62.625 132.333C62.625 142.325 65.5979 150.814 71.5765 157.737L73.0902 156.43C67.4577 149.908 64.625 141.897 64.625 132.333H62.625ZM71.5765 157.737C77.5486 164.652 85.4064 168.884 95.0908 170.446L95.4092 168.471C86.1492 166.978 78.7292 162.959 73.0902 156.43L71.5765 157.737ZM95.0899 170.445L112.048 173.195L112.368 171.221L95.4101 168.471L95.0899 170.445ZM112.052 173.196C123.56 175.013 133.99 178.492 143.352 183.627L144.314 181.873C134.732 176.619 124.079 173.07 112.364 171.221L112.052 173.196ZM143.352 183.627C152.721 188.765 160.722 195.257 167.362 203.104L168.888 201.812C162.084 193.771 153.89 187.124 144.314 181.873L143.352 183.627ZM167.362 203.104C174.001 210.951 179.137 220.01 182.765 230.291L184.651 229.626C180.947 219.129 175.693 209.855 168.888 201.812L167.362 203.104ZM182.769 230.3C186.392 240.265 188.208 250.996 188.208 262.5H190.208C190.208 250.782 188.358 239.818 184.648 229.617L182.769 230.3ZM188.208 262.5V333.542H190.208V262.5H188.208ZM188.208 333.542C188.208 354.104 182.018 370.485 169.71 382.793L171.124 384.207C183.871 371.46 190.208 354.535 190.208 333.542H188.208ZM169.71 382.793C157.402 395.101 141.02 401.292 120.458 401.292V403.292C141.452 403.292 158.376 396.955 171.124 384.207L169.71 382.793ZM120.458 401.292H70.5V403.292H120.458V401.292ZM70.5 401.292C49.938 401.292 33.5568 395.101 21.2488 382.793L19.8346 384.207C32.5821 396.955 49.5064 403.292 70.5 403.292V401.292ZM21.2488 382.793C8.94079 370.485 2.75 354.104 2.75 333.542H0.75C0.75 354.535 7.08699 371.46 19.8346 384.207L21.2488 382.793ZM2.75 333.542V295.958H0.75V333.542H2.75ZM1.75 296.958H63.625V294.958H1.75V296.958ZM62.625 295.958V317.5H64.625V295.958H62.625ZM62.625 317.5C62.625 324.726 64.6728 330.64 68.8505 335.139L70.3161 333.778C66.5494 329.721 64.625 324.33 64.625 317.5H62.625ZM68.9029 335.191C73.402 339.369 79.3159 341.417 86.5417 341.417V339.417C79.7119 339.417 74.3203 337.492 70.2638 333.726L68.9029 335.191ZM86.5417 341.417H104.417V339.417H86.5417V341.417ZM104.417 341.417C111.639 341.417 117.42 339.37 121.624 335.165L120.21 333.751C116.469 337.491 111.25 339.417 104.417 339.417V341.417ZM121.624 335.165C126.12 330.67 128.333 324.747 128.333 317.5H126.333C126.333 324.309 124.269 329.691 120.21 333.751L121.624 335.165ZM128.333 317.5V271.667H126.333V317.5H128.333ZM128.333 271.667C128.333 261.675 125.36 253.186 119.382 246.263L117.868 247.57C123.501 254.092 126.333 262.103 126.333 271.667H128.333ZM119.382 246.263C113.41 239.348 105.552 235.116 95.8676 233.554L95.5491 235.529C104.809 237.022 112.229 241.041 117.868 247.57L119.382 246.263ZM95.8684 233.555L78.9101 230.805L78.5899 232.779L95.5483 235.529L95.8684 233.555ZM78.906 230.804C67.3987 228.987 56.9684 225.508 47.6058 220.373L46.6442 222.127C56.226 227.381 66.8791 230.93 78.594 232.779L78.906 230.804ZM47.6058 220.373C38.237 215.235 30.2367 208.743 23.5967 200.896L22.0699 202.188C28.8744 210.229 37.0686 216.876 46.6442 222.127L47.6058 220.373ZM23.5967 200.896C16.9532 193.044 11.8174 184.134 8.18979 174.158L6.31021 174.842C10.016 185.033 15.2691 194.15 22.0699 202.188L23.5967 200.896ZM8.19299 174.167C4.56605 163.891 2.75 153.004 2.75 141.5H0.75C0.75 153.218 2.60061 164.331 6.30701 174.833L8.19299 174.167ZM214.546 4.45832V3.45832H213.546V4.45832H214.546ZM409.796 4.45832H410.796V3.45832H409.796V4.45832ZM409.796 66.3333V67.3333H410.796V66.3333H409.796ZM343.337 66.3333V65.3333H342.337V66.3333H343.337ZM343.337 400V401H344.337V400H343.337ZM281.004 400H280.004V401H281.004V400ZM281.004 66.3333H282.004V65.3333H281.004V66.3333ZM214.546 66.3333H213.546V67.3333H214.546V66.3333ZM214.546 5.45832H409.796V3.45832H214.546V5.45832ZM408.796 4.45832V66.3333H410.796V4.45832H408.796ZM409.796 65.3333H343.337V67.3333H409.796V65.3333ZM342.337 66.3333V400H344.337V66.3333H342.337ZM343.337 399H281.004V401H343.337V399ZM282.004 400V66.3333H280.004V400H282.004ZM281.004 65.3333H214.546V67.3333H281.004V65.3333ZM215.546 66.3333V4.45832H213.546V66.3333H215.546ZM455.249 53.5L454.262 53.3389L454.261 53.3456L455.249 53.5ZM474.499 17.2917L473.849 16.5324L473.843 16.5371L473.838 16.5418L474.499 17.2917ZM558.374 3.54165L559.362 3.38633L559.229 2.54165H558.374V3.54165ZM620.708 400V401H621.877L621.696 399.845L620.708 400ZM556.083 400L555.092 400.137L555.212 401H556.083V400ZM545.541 323.917L546.532 323.779L546.412 322.917H545.541V323.917ZM476.333 323.917V322.917H475.462L475.342 323.779L476.333 323.917ZM465.791 399.542V400.542H466.661L466.781 399.68L465.791 399.542ZM401.166 399.542L400.178 399.387L399.998 400.542H401.166V399.542ZM485.041 262.042L484.051 261.9L483.888 263.042H485.041V262.042ZM536.833 262.042V263.042H537.983L537.823 261.903L536.833 262.042ZM511.166 79.1666L512.156 79.0276L510.176 79.0252L511.166 79.1666ZM456.236 53.6611C458.647 38.8937 464.962 27.0406 475.161 18.0415L473.838 16.5418C463.259 25.8761 456.74 38.1619 454.262 53.3389L456.236 53.6611ZM475.15 18.0509C485.647 9.05322 498.397 4.54165 513.458 4.54165V2.54165C497.963 2.54165 484.74 7.19677 473.849 16.5324L475.15 18.0509ZM513.458 4.54165H558.374V2.54165H513.458V4.54165ZM557.386 3.69697L619.72 400.155L621.696 399.845L559.362 3.38633L557.386 3.69697ZM620.708 399H556.083V401H620.708V399ZM557.073 399.863L546.532 323.779L544.55 324.054L555.092 400.137L557.073 399.863ZM545.541 322.917H476.333V324.917H545.541V322.917ZM475.342 323.779L464.801 399.404L466.781 399.68L477.323 324.055L475.342 323.779ZM465.791 398.542H401.166V400.542H465.791V398.542ZM402.154 399.696L456.237 53.6544L454.261 53.3456L400.178 399.387L402.154 399.696ZM485.041 263.042H536.833V261.042H485.041V263.042ZM537.823 261.903L512.156 79.0276L510.176 79.3056L535.842 262.181L537.823 261.903ZM510.176 79.0252L484.051 261.9L486.031 262.183L512.156 79.3081L510.176 79.0252ZM669.391 20.9583L670.098 21.6654L669.391 20.9583ZM824.308 20.9583L823.591 21.6554L823.601 21.6655L823.611 21.6753L824.308 20.9583ZM840.808 139.667L840.494 140.616L841.808 141.051V139.667H840.808ZM778.475 119.042H777.475V119.764L778.16 119.991L778.475 119.042ZM773.433 71.8333L774.14 71.1262L773.433 71.8333ZM720.725 71.8333L721.432 72.5404L720.725 71.8333ZM720.725 332.625L721.432 331.918L720.725 332.625ZM773.433 332.625L774.14 333.332L773.433 332.625ZM778.475 285.417L778.789 284.467L777.475 284.032V285.417H778.475ZM840.808 306.042H841.808V305.319L841.122 305.092L840.808 306.042ZM824.308 383.958L825.015 384.665L824.308 383.958ZM669.391 383.958L668.674 384.655L668.684 384.665L668.694 384.675L669.391 383.958ZM654.35 340.417V64.0417H652.35V340.417H654.35ZM654.35 64.0417C654.35 46.2245 659.627 32.137 670.098 21.6654L668.684 20.2512C657.767 31.1686 652.35 45.8033 652.35 64.0417H654.35ZM670.098 21.6654C680.881 10.8829 695.125 5.45832 712.933 5.45832V3.45832C694.686 3.45832 679.902 9.03373 668.684 20.2512L670.098 21.6654ZM712.933 5.45832H781.225V3.45832H712.933V5.45832ZM781.225 5.45832C799.033 5.45832 813.118 10.8829 823.591 21.6554L825.025 20.2613C814.109 9.03373 799.471 3.45832 781.225 3.45832V5.45832ZM823.611 21.6753C834.383 32.1486 839.808 46.2328 839.808 64.0417H841.808C841.808 45.795 836.233 31.157 825.005 20.2413L823.611 21.6753ZM839.808 64.0417V139.667H841.808V64.0417H839.808ZM841.122 138.717L778.789 118.092L778.16 119.991L840.494 140.616L841.122 138.717ZM779.475 119.042V84.2083H777.475V119.042H779.475ZM779.475 84.2083C779.475 79.0627 777.695 74.6808 774.14 71.1262L772.726 72.5404C775.893 75.7081 777.475 79.5762 777.475 84.2083H779.475ZM774.14 71.1262C770.586 67.5717 766.204 65.7917 761.058 65.7917V67.7917C765.69 67.7917 769.558 69.3728 772.726 72.5404L774.14 71.1262ZM761.058 65.7917H733.1V67.7917H761.058V65.7917ZM733.1 65.7917C727.954 65.7917 723.572 67.5717 720.018 71.1262L721.432 72.5404C724.599 69.3728 728.467 67.7917 733.1 67.7917V65.7917ZM720.018 71.1262C716.463 74.6808 714.683 79.0627 714.683 84.2083H716.683C716.683 79.5762 718.264 75.7081 721.432 72.5404L720.018 71.1262ZM714.683 84.2083V320.25H716.683V84.2083H714.683ZM714.683 320.25C714.683 325.396 716.463 329.778 720.018 333.332L721.432 331.918C718.264 328.75 716.683 324.882 716.683 320.25H714.683ZM720.018 333.332C723.572 336.887 727.954 338.667 733.1 338.667V336.667C728.467 336.667 724.599 335.086 721.432 331.918L720.018 333.332ZM733.1 338.667H761.058V336.667H733.1V338.667ZM761.058 338.667C766.204 338.667 770.586 336.887 774.14 333.332L772.726 331.918C769.558 335.086 765.69 336.667 761.058 336.667V338.667ZM774.14 333.332C777.695 329.778 779.475 325.396 779.475 320.25H777.475C777.475 324.882 775.893 328.75 772.726 331.918L774.14 333.332ZM779.475 320.25V285.417H777.475V320.25H779.475ZM778.16 286.366L840.494 306.991L841.122 305.092L778.789 284.467L778.16 286.366ZM839.808 306.042V340.417H841.808V306.042H839.808ZM839.808 340.417C839.808 358.225 834.383 372.469 823.601 383.251L825.015 384.665C836.233 373.448 841.808 358.664 841.808 340.417H839.808ZM823.601 383.251C813.129 393.723 799.042 399 781.225 399V401C799.463 401 814.098 395.583 825.015 384.665L823.601 383.251ZM781.225 399H712.933V401H781.225V399ZM712.933 399C695.117 399 680.869 393.723 670.088 383.241L668.694 384.675C679.913 395.583 694.694 401 712.933 401V399ZM670.108 383.261C659.627 372.48 654.35 358.233 654.35 340.417H652.35C652.35 358.656 657.767 373.436 668.674 384.655L670.108 383.261ZM948.638 3.99998H949.638V2.99998H948.638V3.99998ZM948.638 162.125H947.638L949.542 162.553L948.638 162.125ZM1005.93 41.125L1006.83 41.5529L1006.84 41.5425L1005.93 41.125ZM1029.76 14.0833L1029.24 13.23L1029.23 13.2367L1029.76 14.0833ZM1101.26 3.99998L1102.15 4.45907L1102.91 2.99998H1101.26V3.99998ZM1016.47 168.083L1015.58 167.624L1015.39 168.005L1015.53 168.41L1016.47 168.083ZM1096.68 400V401H1098.08L1097.62 399.673L1096.68 400ZM1027.93 400L1026.98 400.327L1027.22 401H1027.93V400ZM975.221 247.833L976.166 247.506L975.4 245.295L974.332 247.377L975.221 247.833ZM948.638 299.625L947.748 299.168L947.638 299.383V299.625H948.638ZM948.638 400V401H949.638V400H948.638ZM886.305 400H885.305V401H886.305V400ZM886.305 3.99998V2.99998H885.305V3.99998H886.305ZM947.638 3.99998V162.125H949.638V3.99998H947.638ZM949.542 162.553L1006.83 41.5529L1005.03 40.697L947.734 161.697L949.542 162.553ZM1006.84 41.5425C1011.95 30.4164 1019.76 21.5504 1030.3 14.9299L1029.23 13.2367C1018.37 20.0607 1010.3 29.2225 1005.02 40.7075L1006.84 41.5425ZM1030.28 14.9366C1041.13 8.3074 1052.72 4.99998 1065.05 4.99998V2.99998C1052.34 2.99998 1040.39 6.41479 1029.24 13.23L1030.28 14.9366ZM1065.05 4.99998H1101.26V2.99998H1065.05V4.99998ZM1100.37 3.5409L1015.58 167.624L1017.36 168.542L1102.15 4.45907L1100.37 3.5409ZM1015.53 168.41L1095.73 400.327L1097.62 399.673L1017.42 167.756L1015.53 168.41ZM1096.68 399H1027.93V401H1096.68V399ZM1028.87 399.673L976.166 247.506L974.276 248.161L1026.98 400.327L1028.87 399.673ZM974.332 247.377L947.748 299.168L949.528 300.082L976.111 248.29L974.332 247.377ZM947.638 299.625V400H949.638V299.625H947.638ZM948.638 399H886.305V401H948.638V399ZM887.305 400V3.99998H885.305V400H887.305ZM886.305 4.99998H948.638V2.99998H886.305V4.99998Z" fill="white"/>
</svg>
