<svg width="1887" height="404" viewBox="0 0 1887 404" fill="none" xmlns="http://www.w3.org/2000/svg">
<path opacity="0.1" d="M1.75 4.45832V3.45832H0.75V4.45832H1.75ZM172.708 20.9583L171.991 21.6554L172.001 21.6655L172.011 21.6753L172.708 20.9583ZM64.0833 246.917V245.917H63.0833V246.917H64.0833ZM64.0833 400V401H65.0833V400H64.0833ZM1.75 400H0.75V401H1.75V400ZM64.0833 66.3333V65.3333H63.0833V66.3333H64.0833ZM64.0833 184.583H63.0833V185.583H64.0833V184.583ZM121.833 179.542L122.54 180.249L122.54 180.249L121.833 179.542ZM121.833 71.375L122.54 70.6679L122.54 70.6679L121.833 71.375ZM1.75 5.45832H129.625V3.45832H1.75V5.45832ZM129.625 5.45832C147.434 5.45832 161.518 10.8829 171.991 21.6554L173.425 20.2613C162.51 9.03373 147.872 3.45832 129.625 3.45832V5.45832ZM172.011 21.6753C182.784 32.1486 188.208 46.2328 188.208 64.0417H190.208C190.208 45.795 184.633 31.157 173.405 20.2413L172.011 21.6753ZM188.208 64.0417V187.333H190.208V64.0417H188.208ZM188.208 187.333C188.208 205.141 182.784 219.385 172.001 230.168L173.415 231.582C184.633 220.365 190.208 205.581 190.208 187.333H188.208ZM172.001 230.168C161.53 240.639 147.442 245.917 129.625 245.917V247.917C147.863 247.917 162.498 242.499 173.415 231.582L172.001 230.168ZM129.625 245.917H64.0833V247.917H129.625V245.917ZM63.0833 246.917V400H65.0833V246.917H63.0833ZM64.0833 399H1.75V401H64.0833V399ZM2.75 400V4.45832H0.75V400H2.75ZM63.0833 66.3333V184.583H65.0833V66.3333H63.0833ZM64.0833 185.583H109.458V183.583H64.0833V185.583ZM109.458 185.583C114.604 185.583 118.986 183.803 122.54 180.249L121.126 178.835C117.959 182.002 114.09 183.583 109.458 183.583V185.583ZM122.54 180.249C126.095 176.694 127.875 172.312 127.875 167.167H125.875C125.875 171.799 124.294 175.667 121.126 178.835L122.54 180.249ZM127.875 167.167V83.75H125.875V167.167H127.875ZM127.875 83.75C127.875 78.6043 126.095 74.2224 122.54 70.6679L121.126 72.0821C124.294 75.2498 125.875 79.1179 125.875 83.75H127.875ZM122.54 70.6679C118.986 67.1133 114.604 65.3333 109.458 65.3333V67.3333C114.09 67.3333 117.959 68.9144 121.126 72.0821L122.54 70.6679ZM109.458 65.3333H64.0833V67.3333H109.458V65.3333ZM249.737 20.5L250.444 21.2071L250.444 21.2071L249.737 20.5ZM406.029 20.5L405.322 21.2071L405.322 21.2071L406.029 20.5ZM406.029 383.5L405.322 382.793L405.322 382.793L406.029 383.5ZM249.737 383.5L250.444 382.793L250.444 382.793L249.737 383.5ZM357.445 334.917L356.738 334.21L356.738 334.21L357.445 334.917ZM357.445 69.0833L356.738 69.7904L356.738 69.7904L357.445 69.0833ZM298.32 69.0833L299.027 69.7904L299.027 69.7904L298.32 69.0833ZM298.32 334.917L299.027 334.21L299.027 334.21L298.32 334.917ZM231.945 70.4583C231.945 49.8964 238.136 33.5151 250.444 21.2071L249.03 19.7929C236.282 32.5405 229.945 49.4647 229.945 70.4583H231.945ZM250.444 21.2071C262.752 8.89911 279.133 2.70832 299.695 2.70832V0.70832C278.702 0.70832 261.777 7.04531 249.03 19.7929L250.444 21.2071ZM299.695 2.70832H356.07V0.70832H299.695V2.70832ZM356.07 2.70832C376.632 2.70832 393.014 8.89911 405.322 21.2071L406.736 19.7929C393.988 7.04531 377.064 0.70832 356.07 0.70832V2.70832ZM405.322 21.2071C417.63 33.5151 423.82 49.8964 423.82 70.4583H425.82C425.82 49.4647 419.483 32.5405 406.736 19.7929L405.322 21.2071ZM423.82 70.4583V333.542H425.82V70.4583H423.82ZM423.82 333.542C423.82 354.104 417.63 370.485 405.322 382.793L406.736 384.207C419.483 371.46 425.82 354.535 425.82 333.542H423.82ZM405.322 382.793C393.014 395.101 376.632 401.292 356.07 401.292V403.292C377.064 403.292 393.988 396.955 406.736 384.207L405.322 382.793ZM356.07 401.292H299.695V403.292H356.07V401.292ZM299.695 401.292C279.133 401.292 262.752 395.101 250.444 382.793L249.03 384.207C261.777 396.955 278.702 403.292 299.695 403.292V401.292ZM250.444 382.793C238.136 370.485 231.945 354.104 231.945 333.542H229.945C229.945 354.535 236.282 371.46 249.03 384.207L250.444 382.793ZM231.945 333.542V70.4583H229.945V333.542H231.945ZM310.695 340.958H345.07V338.958H310.695V340.958ZM345.07 340.958C350.216 340.958 354.598 339.178 358.152 335.624L356.738 334.21C353.571 337.377 349.702 338.958 345.07 338.958V340.958ZM358.152 335.624C361.707 332.069 363.487 327.687 363.487 322.542H361.487C361.487 327.174 359.906 331.042 356.738 334.21L358.152 335.624ZM363.487 322.542V83.75H361.487V322.542H363.487ZM363.487 83.75C363.487 77.1636 361.759 71.983 358.152 68.3762L356.738 69.7904C359.854 72.9058 361.487 77.5031 361.487 83.75H363.487ZM358.152 68.3762C354.598 64.8217 350.216 63.0417 345.07 63.0417V65.0417C349.702 65.0417 353.571 66.6228 356.738 69.7904L358.152 68.3762ZM345.07 63.0417H310.695V65.0417H345.07V63.0417ZM310.695 63.0417C305.55 63.0417 301.168 64.8217 297.613 68.3762L299.027 69.7904C302.195 66.6228 306.063 65.0417 310.695 65.0417V63.0417ZM297.613 68.3762C294.006 71.983 292.279 77.1636 292.279 83.75H294.279C294.279 77.5031 295.912 72.9058 299.027 69.7904L297.613 68.3762ZM292.279 83.75V322.542H294.279V83.75H292.279ZM292.279 322.542C292.279 327.687 294.059 332.069 297.613 335.624L299.027 334.21C295.86 331.042 294.279 327.174 294.279 322.542H292.279ZM297.613 335.624C301.168 339.178 305.55 340.958 310.695 340.958V338.958C306.063 338.958 302.195 337.377 299.027 334.21L297.613 335.624ZM473.568 4.45832V3.45832H472.568V4.45832H473.568ZM644.527 20.9583L643.81 21.6554L643.82 21.6655L643.83 21.6753L644.527 20.9583ZM651.402 208.417L652.23 208.978L652.234 208.971L652.238 208.965L651.402 208.417ZM624.818 228.583L624.487 227.64L623.593 227.954L623.859 228.864L624.818 228.583ZM674.777 399.542V400.542H676.111L675.737 399.261L674.777 399.542ZM611.527 393.583L610.919 394.378L610.93 394.386L610.941 394.394L611.527 393.583ZM600.985 377.542L601.95 377.279L601.948 377.27L601.945 377.262L600.985 377.542ZM558.818 232.708L559.778 232.429L559.569 231.708H558.818V232.708ZM535.902 232.708V231.708H534.902V232.708H535.902ZM535.902 399.542V400.542H536.902V399.542H535.902ZM473.568 399.542H472.568V400.542H473.568V399.542ZM535.902 170.833H534.902V171.833H535.902V170.833ZM592.277 164.875L592.984 165.582L592.984 165.582L592.277 164.875ZM592.277 72.75L591.544 73.4304L591.569 73.4576L591.596 73.4828L592.277 72.75ZM535.902 66.3333V65.3333H534.902V66.3333H535.902ZM473.568 5.45832H601.443V3.45832H473.568V5.45832ZM601.443 5.45832C619.252 5.45832 633.336 10.8829 643.81 21.6554L645.244 20.2613C634.328 9.03373 619.69 3.45832 601.443 3.45832V5.45832ZM643.83 21.6753C654.602 32.1486 660.027 46.2328 660.027 64.0417H662.027C662.027 45.795 656.451 31.157 645.224 20.2413L643.83 21.6753ZM660.027 64.0417V173.125H662.027V64.0417H660.027ZM660.027 173.125C660.027 186.715 656.858 198.28 650.566 207.868L652.238 208.965C658.779 198.998 662.027 187.035 662.027 173.125H660.027ZM650.574 207.856C644.283 217.142 635.6 223.735 624.487 227.64L625.15 229.527C636.647 225.487 645.687 218.636 652.23 208.978L650.574 207.856ZM623.859 228.864L673.817 399.822L675.737 399.261L625.778 228.303L623.859 228.864ZM674.777 398.542H630.318V400.542H674.777V398.542ZM630.318 398.542C623.493 398.542 617.435 396.617 612.112 392.773L610.941 394.394C616.618 398.494 623.088 400.542 630.318 400.542V398.542ZM612.134 392.789C607.126 388.959 603.729 383.804 601.95 377.279L600.02 377.805C601.907 384.724 605.539 390.263 610.919 394.378L612.134 392.789ZM601.945 377.262L559.778 232.429L557.858 232.988L600.025 377.821L601.945 377.262ZM558.818 231.708H535.902V233.708H558.818V231.708ZM534.902 232.708V399.542H536.902V232.708H534.902ZM535.902 398.542H473.568V400.542H535.902V398.542ZM474.568 399.542V4.45832H472.568V399.542H474.568ZM535.902 171.833H575.777V169.833H535.902V171.833ZM575.777 171.833C582.999 171.833 588.78 169.786 592.984 165.582L591.57 164.168C587.829 167.908 582.61 169.833 575.777 169.833V171.833ZM592.984 165.582C597.48 161.086 599.693 155.163 599.693 147.917H597.693C597.693 154.726 595.629 160.108 591.57 164.168L592.984 165.582ZM599.693 147.917V89.25H597.693V147.917H599.693ZM599.693 89.25C599.693 82.0055 597.48 76.2167 592.957 72.0172L591.596 73.4828C595.629 77.2277 597.693 82.4389 597.693 89.25H599.693ZM593.009 72.0695C588.81 67.547 583.021 65.3333 575.777 65.3333V67.3333C582.588 67.3333 587.799 69.3974 591.544 73.4304L593.009 72.0695ZM575.777 65.3333H535.902V67.3333H575.777V65.3333ZM534.902 66.3333V170.833H536.902V66.3333H534.902ZM696.032 4.45832V3.45832H695.032V4.45832H696.032ZM891.282 4.45832H892.282V3.45832H891.282V4.45832ZM891.282 66.3333V67.3333H892.282V66.3333H891.282ZM824.824 66.3333V65.3333H823.824V66.3333H824.824ZM824.824 400V401H825.824V400H824.824ZM762.49 400H761.49V401H762.49V400ZM762.49 66.3333H763.49V65.3333H762.49V66.3333ZM696.032 66.3333H695.032V67.3333H696.032V66.3333ZM696.032 5.45832H891.282V3.45832H696.032V5.45832ZM890.282 4.45832V66.3333H892.282V4.45832H890.282ZM891.282 65.3333H824.824V67.3333H891.282V65.3333ZM823.824 66.3333V400H825.824V66.3333H823.824ZM824.824 399H762.49V401H824.824V399ZM763.49 400V66.3333H761.49V400H763.49ZM762.49 65.3333H696.032V67.3333H762.49V65.3333ZM697.032 66.3333V4.45832H695.032V66.3333H697.032ZM1102.3 3.99998H1103.3V2.99998H1102.3V3.99998ZM1102.3 66.3333V67.3333H1103.3V66.3333H1102.3ZM993.218 66.3333V65.3333H992.218V66.3333H993.218ZM993.218 170.833H992.218V171.833H993.218V170.833ZM1072.51 170.833H1073.51V169.833H1072.51V170.833ZM993.218 233.167V232.167H992.218V233.167H993.218ZM993.218 400V401H994.218V400H993.218ZM930.885 400H929.885V401H930.885V400ZM930.885 3.99998V2.99998H929.885V3.99998H930.885ZM1101.3 3.99998V66.3333H1103.3V3.99998H1101.3ZM1102.3 65.3333H993.218V67.3333H1102.3V65.3333ZM992.218 66.3333V170.833H994.218V66.3333H992.218ZM993.218 171.833H1072.51V169.833H993.218V171.833ZM1071.51 170.833V196.5H1073.51V170.833H1071.51ZM1071.51 196.5C1071.51 207.28 1068.22 215.871 1061.72 222.376L1063.13 223.79C1070.07 216.851 1073.51 207.72 1073.51 196.5H1071.51ZM1061.72 222.376C1055.21 228.881 1046.62 232.167 1035.84 232.167V234.167C1047.06 234.167 1056.19 230.73 1063.13 223.79L1061.72 222.376ZM1035.84 232.167H993.218V234.167H1035.84V232.167ZM992.218 233.167V400H994.218V233.167H992.218ZM993.218 399H930.885V401H993.218V399ZM931.885 400V3.99998H929.885V400H931.885ZM930.885 4.99998H1102.3V2.99998H930.885V4.99998ZM1159.54 20.5L1160.24 21.2071L1160.24 21.2071L1159.54 20.5ZM1315.83 20.5L1315.12 21.2071L1315.12 21.2071L1315.83 20.5ZM1315.83 383.5L1315.12 382.793L1315.12 382.793L1315.83 383.5ZM1159.54 383.5L1160.24 382.793L1160.24 382.793L1159.54 383.5ZM1267.24 334.917L1266.54 334.21L1266.54 334.21L1267.24 334.917ZM1267.24 69.0833L1266.54 69.7904L1266.54 69.7904L1267.24 69.0833ZM1208.12 69.0833L1208.83 69.7904L1208.83 69.7904L1208.12 69.0833ZM1208.12 334.917L1208.83 334.21L1208.83 334.21L1208.12 334.917ZM1141.74 70.4583C1141.74 49.8964 1147.93 33.5151 1160.24 21.2071L1158.83 19.7929C1146.08 32.5405 1139.74 49.4647 1139.74 70.4583H1141.74ZM1160.24 21.2071C1172.55 8.89911 1188.93 2.70832 1209.49 2.70832V0.70832C1188.5 0.70832 1171.58 7.04531 1158.83 19.7929L1160.24 21.2071ZM1209.49 2.70832H1265.87V0.70832H1209.49V2.70832ZM1265.87 2.70832C1286.43 2.70832 1302.81 8.89911 1315.12 21.2071L1316.53 19.7929C1303.79 7.04531 1286.86 0.70832 1265.87 0.70832V2.70832ZM1315.12 21.2071C1327.43 33.5151 1333.62 49.8964 1333.62 70.4583H1335.62C1335.62 49.4647 1329.28 32.5405 1316.53 19.7929L1315.12 21.2071ZM1333.62 70.4583V333.542H1335.62V70.4583H1333.62ZM1333.62 333.542C1333.62 354.104 1327.43 370.485 1315.12 382.793L1316.53 384.207C1329.28 371.46 1335.62 354.535 1335.62 333.542H1333.62ZM1315.12 382.793C1302.81 395.101 1286.43 401.292 1265.87 401.292V403.292C1286.86 403.292 1303.79 396.955 1316.53 384.207L1315.12 382.793ZM1265.87 401.292H1209.49V403.292H1265.87V401.292ZM1209.49 401.292C1188.93 401.292 1172.55 395.101 1160.24 382.793L1158.83 384.207C1171.58 396.955 1188.5 403.292 1209.49 403.292V401.292ZM1160.24 382.793C1147.93 370.485 1141.74 354.104 1141.74 333.542H1139.74C1139.74 354.535 1146.08 371.46 1158.83 384.207L1160.24 382.793ZM1141.74 333.542V70.4583H1139.74V333.542H1141.74ZM1220.49 340.958H1254.87V338.958H1220.49V340.958ZM1254.87 340.958C1260.01 340.958 1264.4 339.178 1267.95 335.624L1266.54 334.21C1263.37 337.377 1259.5 338.958 1254.87 338.958V340.958ZM1267.95 335.624C1271.51 332.069 1273.29 327.687 1273.29 322.542H1271.29C1271.29 327.174 1269.7 331.042 1266.54 334.21L1267.95 335.624ZM1273.29 322.542V83.75H1271.29V322.542H1273.29ZM1273.29 83.75C1273.29 77.1636 1271.56 71.983 1267.95 68.3762L1266.54 69.7904C1269.65 72.9058 1271.29 77.5031 1271.29 83.75H1273.29ZM1267.95 68.3762C1264.4 64.8217 1260.01 63.0417 1254.87 63.0417V65.0417C1259.5 65.0417 1263.37 66.6228 1266.54 69.7904L1267.95 68.3762ZM1254.87 63.0417H1220.49V65.0417H1254.87V63.0417ZM1220.49 63.0417C1215.35 63.0417 1210.97 64.8217 1207.41 68.3762L1208.83 69.7904C1211.99 66.6228 1215.86 65.0417 1220.49 65.0417V63.0417ZM1207.41 68.3762C1203.81 71.983 1202.08 77.1636 1202.08 83.75H1204.08C1204.08 77.5031 1205.71 72.9058 1208.83 69.7904L1207.41 68.3762ZM1202.08 83.75V322.542H1204.08V83.75H1202.08ZM1202.08 322.542C1202.08 327.687 1203.86 332.069 1207.41 335.624L1208.83 334.21C1205.66 331.042 1204.08 327.174 1204.08 322.542H1202.08ZM1207.41 335.624C1210.97 339.178 1215.35 340.958 1220.49 340.958V338.958C1215.86 338.958 1211.99 337.377 1208.83 334.21L1207.41 335.624ZM1550.2 400V401H1551.36L1551.19 399.855L1550.2 400ZM1383.37 400H1382.37V401H1383.37V400ZM1383.37 3.99998V2.99998H1382.37V3.99998H1383.37ZM1445.7 3.99998H1446.7V2.99998H1445.7V3.99998ZM1445.7 337.667H1444.7V338.667H1445.7V337.667ZM1541.03 337.667L1542.02 337.521L1541.9 336.667H1541.03V337.667ZM1550.2 399H1383.37V401H1550.2V399ZM1384.37 400V3.99998H1382.37V400H1384.37ZM1383.37 4.99998H1445.7V2.99998H1383.37V4.99998ZM1444.7 3.99998V337.667H1446.7V3.99998H1444.7ZM1445.7 338.667H1541.03V336.667H1445.7V338.667ZM1540.04 337.812L1549.21 400.145L1551.19 399.855L1542.02 337.521L1540.04 337.812ZM1583.16 400H1582.16V401H1583.16V400ZM1583.16 3.99998V2.99998H1582.16V3.99998H1583.16ZM1645.5 3.99998H1646.5V2.99998H1645.5V3.99998ZM1645.5 400V401H1646.5V400H1645.5ZM1584.16 400V3.99998H1582.16V400H1584.16ZM1583.16 4.99998H1645.5V2.99998H1583.16V4.99998ZM1644.5 3.99998V400H1646.5V3.99998H1644.5ZM1645.5 399H1583.16V401H1645.5V399ZM1710.7 20.5L1711.4 21.2071L1711.4 21.2071L1710.7 20.5ZM1866.99 20.5L1866.28 21.2071L1866.28 21.2071L1866.99 20.5ZM1866.99 383.5L1866.28 382.793L1866.28 382.793L1866.99 383.5ZM1710.7 383.5L1711.4 382.793L1711.4 382.793L1710.7 383.5ZM1818.4 334.917L1817.7 334.21L1817.7 334.21L1818.4 334.917ZM1818.4 69.0833L1817.7 69.7904L1817.7 69.7904L1818.4 69.0833ZM1759.28 69.0833L1759.99 69.7904L1759.99 69.7904L1759.28 69.0833ZM1759.28 334.917L1759.99 334.21L1759.99 334.21L1759.28 334.917ZM1692.9 70.4583C1692.9 49.8964 1699.1 33.5151 1711.4 21.2071L1709.99 19.7929C1697.24 32.5405 1690.9 49.4647 1690.9 70.4583H1692.9ZM1711.4 21.2071C1723.71 8.89911 1740.09 2.70832 1760.65 2.70832V0.70832C1739.66 0.70832 1722.74 7.04531 1709.99 19.7929L1711.4 21.2071ZM1760.65 2.70832H1817.03V0.70832H1760.65V2.70832ZM1817.03 2.70832C1837.59 2.70832 1853.97 8.89911 1866.28 21.2071L1867.69 19.7929C1854.95 7.04531 1838.02 0.70832 1817.03 0.70832V2.70832ZM1866.28 21.2071C1878.59 33.5151 1884.78 49.8964 1884.78 70.4583H1886.78C1886.78 49.4647 1880.44 32.5405 1867.69 19.7929L1866.28 21.2071ZM1884.78 70.4583V333.542H1886.78V70.4583H1884.78ZM1884.78 333.542C1884.78 354.104 1878.59 370.485 1866.28 382.793L1867.69 384.207C1880.44 371.46 1886.78 354.535 1886.78 333.542H1884.78ZM1866.28 382.793C1853.97 395.101 1837.59 401.292 1817.03 401.292V403.292C1838.02 403.292 1854.95 396.955 1867.69 384.207L1866.28 382.793ZM1817.03 401.292H1760.65V403.292H1817.03V401.292ZM1760.65 401.292C1740.09 401.292 1723.71 395.101 1711.4 382.793L1709.99 384.207C1722.74 396.955 1739.66 403.292 1760.65 403.292V401.292ZM1711.4 382.793C1699.1 370.485 1692.9 354.104 1692.9 333.542H1690.9C1690.9 354.535 1697.24 371.46 1709.99 384.207L1711.4 382.793ZM1692.9 333.542V70.4583H1690.9V333.542H1692.9ZM1771.65 340.958H1806.03V338.958H1771.65V340.958ZM1806.03 340.958C1811.17 340.958 1815.56 339.178 1819.11 335.624L1817.7 334.21C1814.53 337.377 1810.66 338.958 1806.03 338.958V340.958ZM1819.11 335.624C1822.67 332.069 1824.45 327.687 1824.45 322.542H1822.45C1822.45 327.174 1820.86 331.042 1817.7 334.21L1819.11 335.624ZM1824.45 322.542V83.75H1822.45V322.542H1824.45ZM1824.45 83.75C1824.45 77.1636 1822.72 71.983 1819.11 68.3762L1817.7 69.7904C1820.81 72.9058 1822.45 77.5031 1822.45 83.75H1824.45ZM1819.11 68.3762C1815.56 64.8217 1811.17 63.0417 1806.03 63.0417V65.0417C1810.66 65.0417 1814.53 66.6228 1817.7 69.7904L1819.11 68.3762ZM1806.03 63.0417H1771.65V65.0417H1806.03V63.0417ZM1771.65 63.0417C1766.51 63.0417 1762.13 64.8217 1758.57 68.3762L1759.99 69.7904C1763.15 66.6228 1767.02 65.0417 1771.65 65.0417V63.0417ZM1758.57 68.3762C1754.97 71.983 1753.24 77.1636 1753.24 83.75H1755.24C1755.24 77.5031 1756.87 72.9058 1759.99 69.7904L1758.57 68.3762ZM1753.24 83.75V322.542H1755.24V83.75H1753.24ZM1753.24 322.542C1753.24 327.687 1755.02 332.069 1758.57 335.624L1759.99 334.21C1756.82 331.042 1755.24 327.174 1755.24 322.542H1753.24ZM1758.57 335.624C1762.13 339.178 1766.51 340.958 1771.65 340.958V338.958C1767.02 338.958 1763.15 337.377 1759.99 334.21L1758.57 335.624Z" fill="white"/>
</svg>
