<svg width="40" height="40" viewBox="0 0 40 40" fill="none" xmlns="http://www.w3.org/2000/svg">
<path d="M20.0004 0C8.95484 0 0 8.95325 0 19.9989C0 31.0445 8.95484 39.9993 20.0004 39.9993C31.0452 39.9993 40 31.0445 40 19.9989C40 8.95325 31.0452 0 20.0004 0ZM17.1449 14.1032L25.7448 19.1756L24.6615 21.012L16.061 15.9394L17.1449 14.1032ZM14.8443 19.0228L24.4862 21.6147L23.9328 23.6741L14.2904 21.0821L14.8443 19.0228ZM13.8882 23.4814L23.8301 24.3975L23.6346 26.5205L13.6924 25.605L13.8882 23.4814ZM23.5889 27.1317L23.5902 29.2643L13.6054 29.2689L13.6044 27.1366L23.5889 27.1317ZM26.9912 32.1424C26.9912 32.1424 26.9912 32.6405 26.9744 32.6405V32.6487H10.9989C10.9989 32.6487 10.5011 32.6486 10.5011 32.6405H10.4841V22.2496H12.1898V30.9673H25.2857V22.2496H26.9913V32.1424H26.9912ZM26.092 18.8829L20.4661 10.6341L22.2281 9.43261L27.8535 17.682L26.092 18.8829ZM28.2355 17.5523L26.5278 7.71531L28.6289 7.35066L30.337 17.1878L28.2355 17.5523Z" fill="white"/>
</svg>
